<svg width="161" height="49" viewBox="0 0 161 49" fill="none" xmlns="http://www.w3.org/2000/svg">
<g clip-path="url(#clip0_500_2813)">
<path d="M67.138 34.1218V24.1155C67.138 21.8585 65.7066 21.0967 64.4064 21.0967C63.1061 21.0967 61.6429 21.8585 61.6429 24.1155V34.1218H57.5154V17.5711H61.5473V19.0947C62.6278 17.9502 64.1513 17.3798 65.6783 17.3798C67.3293 17.3798 68.6649 17.9219 69.5861 18.8396C70.9182 20.1754 71.269 21.7309 71.269 23.5415V34.1218H67.138Z" fill="#4A4A49"/>
<path d="M78.1528 27.1344C78.1528 29.2958 79.4247 30.8194 81.7737 30.8194C83.5841 30.8194 84.4734 30.2773 85.522 29.2604L88.0304 31.7088C86.3475 33.4237 84.7249 34.3131 81.7382 34.3131C77.8304 34.3131 74.082 32.5344 74.082 25.8305C74.082 20.4305 77.0049 17.3798 81.2918 17.3798C85.8976 17.3798 88.5016 20.6856 88.5016 25.3876V27.1344H78.1457H78.1528ZM84.0624 22.5281C83.6195 21.5431 82.6948 20.8132 81.2989 20.8132C79.903 20.8132 78.9819 21.5431 78.5355 22.5281C78.252 23.1305 78.1882 23.577 78.1528 24.3069H84.445C84.4131 23.577 84.3494 23.1305 84.0624 22.5281Z" fill="#4A4A49"/>
<path d="M97.242 40.3792C94.7017 40.3792 92.9515 39.8725 91.2368 38.2213L93.8089 35.617C94.7301 36.5064 95.6512 36.8855 97.0471 36.8855C99.5272 36.8855 100.385 35.1387 100.385 33.4556V31.7726C99.304 32.9808 98.0639 33.4273 96.4448 33.4273C94.8257 33.4273 93.4263 32.8851 92.5051 31.9674C90.9463 30.4119 90.8223 28.2824 90.8223 25.3911C90.8223 22.4998 90.9498 20.4022 92.5051 18.8467C93.4263 17.9254 94.8576 17.3868 96.4732 17.3868C98.2198 17.3868 99.3642 17.8652 100.509 19.1337V17.5782H104.512V33.5265C104.512 37.4985 101.685 40.3863 97.2384 40.3863L97.242 40.3792ZM97.6565 21.0967C95.2119 21.0967 94.9568 23.1943 94.9568 25.3876C94.9568 27.5809 95.2119 29.7068 97.6565 29.7068C100.101 29.7068 100.388 27.5773 100.388 25.3876C100.388 23.1978 100.101 21.0967 97.6565 21.0967Z" fill="#4A4A49"/>
<path d="M119.789 32.2793C118.74 33.36 117.089 34.3131 114.645 34.3131C112.2 34.3131 110.577 33.36 109.529 32.2793C108.037 30.6883 107.655 28.8175 107.655 25.8305C107.655 22.8435 108.037 21.001 109.529 19.4136C110.577 18.3329 112.197 17.3798 114.645 17.3798C117.093 17.3798 118.74 18.301 119.789 19.4136C121.284 21.0045 121.663 22.847 121.663 25.8305C121.663 28.8139 121.316 30.7238 119.789 32.2793ZM116.583 21.8266C116.104 21.3482 115.47 21.0967 114.645 21.0967C113.819 21.0967 113.213 21.3518 112.739 21.8266C111.881 22.6522 111.786 24.1474 111.786 25.8305C111.786 27.5135 111.881 29.0407 112.739 29.8663C113.217 30.3446 113.851 30.5962 114.645 30.5962C115.438 30.5962 116.104 30.3411 116.583 29.8663C117.44 29.0407 117.536 27.5454 117.536 25.8305C117.536 24.1155 117.44 22.6522 116.583 21.8266Z" fill="#4A4A49"/>
<path d="M131.378 34.3131C128.076 34.3131 123.977 32.5344 123.977 25.8305C123.977 19.1266 128.076 17.3798 131.378 17.3798C133.663 17.3798 135.381 18.0778 136.841 19.6049L134.046 22.4006C133.188 21.4793 132.458 21.0967 131.378 21.0967C130.393 21.0967 129.631 21.4439 129.025 22.1774C128.391 22.9711 128.104 24.0836 128.104 25.8305C128.104 27.5773 128.391 28.7218 129.025 29.5155C129.631 30.2454 130.393 30.5962 131.378 30.5962C132.458 30.5962 133.188 30.2135 134.046 29.2923L136.841 32.056C135.381 33.5796 133.663 34.3131 131.378 34.3131Z" fill="#4A4A49"/>
<path d="M139.19 14.7436V11.3774H143.413V14.7436H139.19ZM139.254 34.1217V18.0494H143.381V34.1217H139.254Z" fill="#4A4A49"/>
<path d="M150.428 27.1344C150.428 29.2958 151.7 30.8194 154.049 30.8194C155.859 30.8194 156.749 30.2773 157.797 29.2604L160.306 31.7088C158.623 33.4237 157 34.3131 154.017 34.3131C150.109 34.3131 146.361 32.5344 146.361 25.8305C146.361 20.4305 149.284 17.3798 153.571 17.3798C158.176 17.3798 160.78 20.6856 160.78 25.3876V27.1344H150.424H150.428ZM156.338 22.5281C155.895 21.5431 154.97 20.8132 153.574 20.8132C152.178 20.8132 151.257 21.5431 150.811 22.5281C150.527 23.1305 150.463 23.577 150.428 24.3069H156.72C156.688 23.577 156.625 23.1305 156.338 22.5281Z" fill="#4A4A49"/>
<path d="M131.257 44.4397C130.811 44.9003 130.194 45.1767 129.404 45.1767C128.614 45.1767 127.998 44.9003 127.551 44.4397C126.892 43.77 126.761 42.863 126.761 41.8637C126.761 40.8645 126.892 39.9433 127.551 39.2878C127.998 38.8272 128.614 38.5508 129.404 38.5508C130.194 38.5508 130.811 38.8272 131.257 39.2878C131.916 39.9468 132.047 40.8681 132.047 41.8637C132.047 42.8594 131.916 43.77 131.257 44.4397ZM130.588 39.8653C130.272 39.55 129.865 39.3905 129.404 39.3905C128.944 39.3905 128.551 39.55 128.235 39.8653C127.761 40.3401 127.711 41.1267 127.711 41.8637C127.711 42.6007 127.75 43.3767 128.235 43.8622C128.551 44.1775 128.944 44.337 129.404 44.337C129.865 44.337 130.272 44.1811 130.588 43.8622C131.062 43.3767 131.101 42.5866 131.101 41.8637C131.101 41.1409 131.062 40.3401 130.588 39.8653Z" fill="#4A4A49"/>
<path d="M138.219 45.0988V41.1161C138.219 39.9716 137.599 39.3941 136.628 39.3941C135.658 39.3941 135.027 39.9858 135.027 41.1161V45.0988H134.081V38.6323H135.027V39.3409C135.488 38.813 136.118 38.5508 136.841 38.5508C137.564 38.5508 138.102 38.7598 138.499 39.1567C138.96 39.6031 139.169 40.209 139.169 40.9567V45.0988H138.223H138.219Z" fill="#4A4A49"/>
<path d="M143.087 45.0988C141.957 45.0988 141.443 44.3618 141.443 43.3767V35.741H142.389V43.3378C142.389 43.9685 142.598 44.2838 143.257 44.2838H143.767V45.0988H143.084H143.087Z" fill="#4A4A49"/>
<path d="M145.284 36.7933V35.7268H146.35V36.7933H145.284ZM145.337 45.0988V38.6323H146.283V45.0988H145.337Z" fill="#4A4A49"/>
<path d="M152.795 45.0988V41.1161C152.795 39.9716 152.175 39.3941 151.204 39.3941C150.233 39.3941 149.602 39.9858 149.602 41.1161V45.0988H148.657V38.6323H149.602V39.3409C150.063 38.813 150.694 38.5508 151.416 38.5508C152.139 38.5508 152.678 38.7598 153.075 39.1567C153.535 39.6031 153.744 40.209 153.744 40.9567V45.0988H152.798H152.795Z" fill="#4A4A49"/>
<path d="M156.635 42.1153C156.635 43.5362 157.294 44.3511 158.541 44.3511C159.289 44.3511 159.721 44.1279 160.235 43.6141L160.88 44.1775C160.224 44.8366 159.604 45.1767 158.513 45.1767C156.791 45.1767 155.686 44.1527 155.686 41.8637C155.686 39.759 156.699 38.5508 158.339 38.5508C159.98 38.5508 160.996 39.7484 160.996 41.6937V42.1118H156.632L156.635 42.1153ZM159.856 40.3295C159.579 39.7378 159.041 39.3551 158.343 39.3551C157.645 39.3551 157.106 39.7378 156.83 40.3295C156.674 40.6697 156.66 40.8823 156.632 41.4067H160.061C160.022 40.8787 160.008 40.6697 159.852 40.3295H159.856Z" fill="#4A4A49"/>
<path d="M14.6126 2.38812L0.510226 29.3319C-0.629512 31.5095 0.211631 34.1988 2.38897 35.3387L27.5156 48.4927C29.693 49.6326 32.382 48.7914 33.5217 46.6138L47.6241 19.67C48.7638 17.4924 47.9227 14.8031 45.7453 13.6632L20.6187 0.50917C18.4413 -0.630689 15.7523 0.210542 14.6126 2.38812Z" fill="#DADADA"/>
<path d="M21.4168 48.256L24.4991 41.4316H6.72088C4.78645 41.4316 3.20632 39.9789 3.0398 38.0513L1.25064 16.8979C1.08767 14.9775 2.45168 13.2377 4.35776 12.9366L40.7681 7.21771C41.8841 7.04409 43.0002 7.3807 43.8327 8.14251C44.6653 8.90431 45.1011 9.98856 45.0231 11.1153L43.2092 37.9875C43.0781 39.9186 41.459 41.4316 39.5246 41.4316H33.2926L21.4133 48.256H21.4168ZM4.66599 14.9031C3.78736 15.0413 3.15672 15.8456 3.23112 16.7314L5.02028 37.8812C5.09469 38.7706 5.82452 39.4438 6.72088 39.4438H27.5779L25.7604 43.469L32.7647 39.4438H39.5281C40.4209 39.4438 41.1685 38.7458 41.2287 37.8529L43.0427 10.9807C43.0781 10.4598 42.8762 9.96021 42.4935 9.60942C42.1073 9.25864 41.5901 9.10274 41.0764 9.18423L4.66599 14.9031Z" fill="#095896"/>
</g>
<defs>
<clipPath id="clip0_500_2813">
<rect width="161" height="49" fill="white"/>
</clipPath>
</defs>
</svg>
